<svg width="12" height="23" viewBox="0 0 12 23" fill="none" xmlns="http://www.w3.org/2000/svg">
<path fill-rule="evenodd" clip-rule="evenodd" d="M8.253 1L10.661 1.0041C10.869 1.0041 11.039 1.19277 11.039 1.42451V4.56731C11.039 4.79905 10.869 4.98772 10.66 4.98772H9.039C7.921 4.98772 7.716 5.47068 7.716 6.42326V8.40226H10.548C10.648 8.40226 10.745 8.44737 10.816 8.5253C10.886 8.60528 10.926 8.71192 10.926 8.82266V12.2075C10.926 12.4392 10.756 12.6279 10.547 12.6279H7.717V21.1683C7.717 21.4 7.547 21.5887 7.337 21.5887H4.179C3.969 21.5887 3.8 21.4 3.8 21.1683V12.6268H1.38C1.17 12.6268 1 12.4392 1 12.2075V8.82369C1 8.59093 1.17 8.40328 1.38 8.40328H3.8V6.06643C3.799 2.99027 5.549 1.00102 8.253 1.00102V1Z" fill="white" stroke="white" stroke-linejoin="round"/>
</svg>
