<svg xmlns="http://www.w3.org/2000/svg" width="37" height="37" fill="none" viewBox="0 0 37 37">
    <mask id="a" width="37" height="37" x="0" y="0" maskUnits="userSpaceOnUse">
        <path fill="#fff" d="M0 0h37v37H0z"/>
    </mask>
    <g mask="url(#a)">
        <path fill="#fff" fill-rule="evenodd" d="M18.5-.007C8.3-.007 0 8.086 0 18.035c0 9.948 8.3 18.042 18.5 18.042S37 27.983 37 18.035C37 8.086 28.702-.007 18.5-.007zm1.894 8.006l2.408.004c.208 0 .378.184.378.41v3.065c0 .226-.17.41-.379.41H21.18c-1.118 0-1.323.471-1.323 1.4v1.93h2.832c.1 0 .197.044.268.12.07.078.11.182.11.29v3.301c0 .226-.17.41-.379.41h-2.83v8.329c0 .226-.17.41-.38.41H16.32c-.21 0-.379-.184-.379-.41v-8.33h-2.42c-.21 0-.38-.183-.38-.409v-3.3c0-.227.17-.41.38-.41h2.42V12.94C15.94 9.94 17.69 8 20.394 8z" clip-rule="evenodd"/>
    </g>
</svg>
