<svg width="26" height="28" viewBox="0 0 26 28" fill="none" xmlns="http://www.w3.org/2000/svg">
<path d="M9.72391 24.0201C9.73281 25.5007 9.78051 26.9495 9.78051 27.3717C8.85679 27.5463 18.8044 27.8467 18.8044 27.3717C18.8044 26.7902 18.7962 24.544 18.7962 22.1711C18.7962 20.5169 18.2143 19.4327 17.5603 18.8857C21.6148 18.4463 25.8688 16.9456 25.8688 10.1292C25.8688 8.19189 25.1664 6.60772 23.9987 5.36611C24.1854 4.91705 24.8088 3.11411 23.8169 0.671172C23.8169 0.671172 22.2905 0.193332 18.8169 2.48946C17.3627 2.09318 15.8047 1.89936 14.2605 1.89072C12.7105 1.89648 11.1554 2.09318 9.70317 2.48658C6.22759 0.191412 4.69925 0.668294 4.69925 0.668294C3.70933 3.11027 4.33272 4.91513 4.52142 5.36323C3.35664 6.60485 2.64729 8.18901 2.64729 10.1263C2.64729 16.9254 6.89643 18.4482 10.9371 18.8963C10.4155 19.3406 9.94423 20.1226 9.78121 21.2692C8.74388 21.724 6.10706 22.507 4.4819 19.7954C4.4819 19.7954 3.5236 18.0922 1.69591 17.9665C1.69591 17.9665 -0.0804113 17.9445 1.5734 19.0441C1.5734 19.0441 2.76782 19.59 3.59275 21.6405C3.59275 21.6405 4.66269 25.0919 9.72391 24.0201Z" fill="white"/>
</svg>
