<svg width="22" height="21" viewBox="0 0 22 21" fill="none" xmlns="http://www.w3.org/2000/svg">
<path d="M5.124 20.967H0.619997V7.41198H5.125V20.967H5.124ZM2.871 5.55998H2.842C1.33 5.55998 0.351997 4.51898 0.351997 3.21798C0.351997 1.88798 1.36 0.875977 2.902 0.875977C4.442 0.875977 5.392 1.88798 5.421 3.21798C5.421 4.51798 4.443 5.55998 2.871 5.55998ZM21.371 20.966H16.865V13.714C16.865 11.892 16.213 10.649 14.583 10.649C13.338 10.649 12.597 11.487 12.271 12.297C12.151 12.587 12.123 12.991 12.123 13.396V20.966H7.618C7.618 20.966 7.677 8.68198 7.618 7.41098H12.123V9.32998C12.722 8.40598 13.793 7.09298 16.183 7.09298C19.148 7.09298 21.37 9.02998 21.37 13.193L21.371 20.966Z" fill="white"/>
</svg>
