<svg xmlns="http://www.w3.org/2000/svg" width="130" height="21" fill="none" viewBox="0 0 130 21">
    <path fill="#3A4042" d="M9.962 19.924c5.502 0 9.962-4.46 9.962-9.962S15.464 0 9.962 0 0 4.46 0 9.962s4.46 9.962 9.962 9.962z"/>
    <path fill="#FFFCEE" d="M18.321 8.808c-2.723 0-3.936 3.166-3.973 3.265-.088.27-.687 2.185-.687 3.716 0 2.895-2.401 4.57-5.313 4.57-2.937 0-5.316-1.7-5.316-4.636 0 0 0-1.621.198-3.061-.469-.53-.537-1.379-.537-1.379s-.197.039-.378.19c-.022.018-.057 0-.053-.03.053-.452.512-1.413 1.42-1.552a8.22 8.22 0 0 1 .529-1.451 5.46 5.46 0 0 1 6.968-2.443c1.838 0 2.725-.975 2.725-.975.412 0 .91 1.079.68 1.481-.006.01.006.021.016.015.765-.487 1.196-1.69 1.196-1.69.874.437 1.333 2.4.864 2.87 1.508.232 1.914 1.11 1.661 1.11z"/>
    <path fill="#EAE6DA" d="M8.216 20.356c-2.876-.05-5.184-1.74-5.184-4.632 0 0-.024-.415.044-1.392 3.007-.473 1.529 3.837 5.14 6.024z"/>
    <path fill="#F25A70" d="M18.391 8.73c0 .049-.024.078-.07.078l-.129.002c-2.416.081-3.487 2.423-3.67 2.868 0 .003-.002.005-.003.007-.098.204-.154.345-.168.38.081-.36.137-.707.137-1.049 0-1.126-.34-2.172-.925-3.041a5.485 5.485 0 0 0-2.382-1.978 5.297 5.297 0 0 0 .227-.006c.03 0 .06-.003.09-.004l.133-.01c.027-.003.053-.005.08-.01a4.28 4.28 0 0 0 .502-.08c.027-.008.055-.014.082-.021a2.269 2.269 0 0 0 .183-.048l.149-.048c.038-.013.077-.026.113-.04.037-.014.075-.027.11-.043a4.069 4.069 0 0 0 .504-.248 2.988 2.988 0 0 0 .477-.346c0-.002 0-.002.002-.003a.122.122 0 0 1 .158.001c.227.198.816.783.596 1.404l-.004.007c-.002.006 0 .011.004.014.003.003.01.006.014.002a1.713 1.713 0 0 0 .216-.163l.054-.049a1.872 1.872 0 0 0 .124-.125l.007-.007.023-.026.024-.026c.003-.002.004-.005.005-.006a.552.552 0 0 0 .036-.043l.02-.024.064-.081.035-.047a.027.027 0 0 0 .008-.01l.002-.003.034-.047a.761.761 0 0 0 .037-.054c.006-.007.01-.014.013-.02l.012-.018a3.394 3.394 0 0 0 .08-.124l.002-.003.05-.083.008-.015c.024-.04.046-.08.066-.118l.023-.04.04-.08c.012-.02.021-.041.032-.06l.001-.004a1.392 1.392 0 0 0 .042-.088l.025-.053a.487.487 0 0 0 .012-.027l.007-.014.024-.057a.119.119 0 0 1 .2-.031c.18.206.507.61.74 1.068l.016.043c.207.636.232 1.314 0 1.59a.436.436 0 0 1-.023.025c.094.014.184.031.27.05l.106.026a3.026 3.026 0 0 1 .15.042c.404.121.695.291.89.456l.048.043.006.005.045.043.042.045a.482.482 0 0 1 .172.296l.002.027z"/>
    <path fill="#828282" d="M3.907 9.875c-1.058 0-1.589 1.08-1.645 1.57-.004.028.03.046.053.027.18-.15.378-.19.378-.19s.146 1.796 1.456 1.796c1.602 0 1.456-3.203-.242-3.203z"/>
    <path fill="#F4F1E4" d="M9.317 18.041c.79.138 2.282.255 2.695-.158.267-.267-.61-1.457-1.432-2.255-.206-.21-.582-.366-.946-.366-.778 0-1.408.63-1.408 1.408 0 .694.43 1.256 1.091 1.371z"/>
    <path fill="#3A4042" d="M17.382 7.373c.183-.73-.19-1.68-1.092-2.717a.6.6 0 0 0-1.007.157c-.051.12-.177.395-.358.671a2.749 2.749 0 0 0-.62-.756.603.603 0 0 0-.799.01c-.195.177-.925.75-2.232.776a5.898 5.898 0 0 0-2.247-.44 5.939 5.939 0 0 0-5.24 3.138 8.775 8.775 0 0 0-.495 1.28c-.91.31-1.434 1.27-1.508 1.895a.514.514 0 0 0 .552.572c.077.262.198.567.39.84a27.103 27.103 0 0 0-.175 2.924c0 1.547.599 2.857 1.732 3.79 1.039.856 2.482 1.327 4.065 1.327 3.411 0 5.794-2.077 5.794-5.05 0-1.454.577-3.297.66-3.557.085-.22 1.187-2.944 3.52-2.944.29 0 .526-.22.549-.511.037-.485-.512-1.091-1.489-1.405zM11.983 19.02c-.923.747-2.214 1.159-3.636 1.159-3.546 0-5.133-2.237-5.133-4.454 0-.015.002-1.386.154-2.705.212.147.469.24.781.24.413 0 .756-.182.992-.527.2-.291.31-.687.31-1.114 0-.927-.536-1.911-1.528-1.922.16-.546.391-1.065.448-1.171a5.278 5.278 0 0 1 4.656-2.788 5.24 5.24 0 0 1 2.082.426 5.287 5.287 0 0 1 3.197 4.853c0 .563-.156 1.137-.337 1.802-.229.841-.488 1.795-.488 2.972 0 1.32-.518 2.436-1.498 3.23zm-7.35-7.405c-.972-.85-1.856-.558-1.994-.504a.977.977 0 0 0-.11.034c.175-.452.613-1.088 1.378-1.088.776 0 1.182.786 1.182 1.562 0 .355-.087.678-.246.91a.801.801 0 0 1-.694.37c-.463 0-.817-.264-1.05-.783a2.902 2.902 0 0 1-.206-.705c.25-.057.842-.103 1.503.476a.18.18 0 0 0 .255-.017.18.18 0 0 0-.017-.255zm9.198-6.521a.118.118 0 0 1 .08-.03c.028 0 .056.01.079.029.2.174.682.649.642 1.185-.201.158-.428.263-.679.263a.18.18 0 1 0 0 .361c1.042 0 1.705-1.284 1.93-1.802.379.31.658.974.75 1.538.06.38.039.706-.055.871a4.975 4.975 0 0 0-.683-.046.18.18 0 1 0 0 .361c1.395 0 1.943.516 2.143.814-1.81.13-2.874 1.49-3.37 2.35a5.613 5.613 0 0 0-.956-3.113 5.649 5.649 0 0 0-2.145-1.894c1.292-.1 2.038-.682 2.264-.887z"/>
    <path fill="#3A4042" d="M7.33 12.826a.895.895 0 1 0 0-1.79.895.895 0 0 0 0 1.79zM10.753 18.351c-.674 0-1.34-.11-1.467-.132-.742-.13-1.24-.752-1.24-1.55a1.59 1.59 0 0 1 1.588-1.587c.403 0 .825.165 1.075.42.588.57 1.528 1.686 1.532 2.236a.367.367 0 0 1-.102.273c-.264.265-.828.34-1.386.34zm-1.405-.488c1.016.178 2.243.186 2.536-.107.06-.173-.52-1.117-1.43-1.998-.182-.187-.518-.315-.82-.315-.677 0-1.227.55-1.227 1.227 0 .615.378 1.095.941 1.193z"/>
    <path fill="#fff" d="M24.203 10.613c0-4.958 3.682-8.76 8.76-8.76 3.056 0 5.751 1.516 7.22 3.899L36.86 7.677c-.746-1.3-2.19-2.07-3.898-2.07-2.984 0-4.91 1.998-4.91 5.006s1.926 5.005 4.91 5.005c1.708 0 3.176-.77 3.898-2.07l3.321 1.926c-1.444 2.382-4.14 3.898-7.22 3.898-5.077 0-8.759-3.802-8.759-8.76zM41.385 13.019c0-3.586 2.84-6.353 6.377-6.353 3.538 0 6.378 2.767 6.378 6.353s-2.84 6.353-6.378 6.353c-3.537 0-6.377-2.767-6.377-6.353zm9.145 0c0-1.709-1.203-2.84-2.768-2.84-1.564 0-2.767 1.131-2.767 2.84 0 1.709 1.203 2.84 2.767 2.84 1.565 0 2.768-1.131 2.768-2.84zM56.185 1.468h3.61v17.567h-3.61V1.468zM62.441 1.468h3.61v17.567h-3.61V1.468zM81.043 7.003v12.032h-3.61v-1.13c-.794.913-1.973 1.467-3.585 1.467-3.153 0-5.752-2.767-5.752-6.353s2.6-6.353 5.752-6.353c1.612 0 2.791.553 3.585 1.468V7.003h3.61zm-3.61 6.016c0-1.805-1.203-2.936-2.863-2.936s-2.864 1.13-2.864 2.936c0 1.805 1.203 2.936 2.864 2.936 1.66 0 2.863-1.131 2.863-2.936zM96.636 13.019c0 3.586-2.598 6.353-5.751 6.353-1.612 0-2.791-.553-3.586-1.468v1.131h-3.61V2.19h3.61v5.944c.795-.915 1.974-1.468 3.586-1.468 3.153 0 5.751 2.767 5.751 6.353zm-3.61 0c0-1.805-1.202-2.936-2.863-2.936-1.66 0-2.864 1.13-2.864 2.936 0 1.805 1.204 2.936 2.864 2.936s2.864-1.131 2.864-2.936zM101.363 18.722l-1.588-1.588v-8.47l1.588-1.589h2.311l1.588 1.588v2.046h-.939V8.976l-1.083-1.083h-1.443l-1.083 1.083v7.845l1.083 1.083h1.443l1.083-1.083v-1.733h.939v2.046l-1.588 1.588h-2.311zM109.136 18.722l-1.588-1.588v-8.47l1.588-1.589h2.647l1.588 1.588v8.47l-1.588 1.59h-2.647zm.433-.818h1.781l1.083-1.083V8.976l-1.083-1.083h-1.781l-1.083 1.083v7.845l1.083 1.083zM117.366 18.722l-1.588-1.588v-8.47l1.588-1.589h1.805l1.516 1.516V2.118h.939v16.604h-.867l-.048-1.54-1.54 1.54h-1.805zm.433-.818h1.083l1.805-1.805V9.7l-1.805-1.806h-1.083l-1.082 1.083v7.845l1.082 1.083zM125.861 18.722l-1.588-1.588v-8.47l1.588-1.589h2.551L130 8.663v4.404h-4.789v3.754l1.083 1.083h1.685l1.082-1.083v-1.444H130v1.757l-1.588 1.588h-2.551zm-.65-6.473h3.85V8.976l-1.082-1.083h-1.685l-1.083 1.083v3.273z"/>
</svg>
