<svg width="42" height="42" viewBox="0 0 42 42" fill="none" xmlns="http://www.w3.org/2000/svg">
<path d="M24.7783 39.5851C33.753 39.5851 41.0285 32.5547 41.0285 23.8823C41.0285 15.2099 33.753 8.17947 24.7783 8.17947C15.8036 8.17947 8.5282 15.2099 8.5282 23.8823C8.5282 32.5547 15.8036 39.5851 24.7783 39.5851Z" fill="#3A4042"/>
<path d="M3.54069 21.8835C1.69573 21.4479 0.615707 19.7885 1.07843 17.9626C1.35676 16.8635 2.16633 16.0277 3.18667 15.7092L3.6005 17.0727C3.0491 17.2268 2.63099 17.6785 2.47545 18.2932C2.20362 19.366 2.7716 20.2343 3.89126 20.4991C5.01078 20.7635 5.92947 20.2469 6.20089 19.174C6.3567 18.5595 6.20379 17.9636 5.78595 17.5899L6.80464 16.5647C7.56006 17.2937 7.87872 18.3965 7.59819 19.5046C7.13587 21.3305 5.38566 22.32 3.54069 21.8835Z" fill="#3A4042"/>
<path d="M6.26222 15.7313C5.08911 15.0412 4.7489 13.6106 5.45376 12.4921C6.15835 11.3736 7.62969 11.0082 8.80294 11.6987C9.9762 12.3885 10.3163 13.8191 9.6114 14.9379C8.90695 16.056 7.43562 16.4213 6.26222 15.7313ZM8.08413 12.84C7.52471 12.5109 6.91501 12.674 6.6034 13.1685C6.29164 13.6631 6.42204 14.2609 6.98132 14.5902C7.54059 14.9191 8.15015 14.7562 8.46177 14.2617C8.77338 13.7668 8.64285 13.1689 8.08413 12.84Z" fill="#3A4042"/>
<path d="M6.27832 8.15494L7.22063 7.1763L12.148 11.6091L11.2052 12.5874L6.27832 8.15494Z" fill="#3A4042"/>
<path d="M8.42224 6.07953L9.48251 5.22168L13.803 10.2068L12.7425 11.0643L8.42224 6.07953Z" fill="#3A4042"/>
<path d="M16.2886 3.61249L18.4569 7.5428L17.2369 8.1716L17.033 7.80201C16.9292 8.23914 16.6303 8.62542 16.0854 8.90625C15.0195 9.45537 13.6419 9.00409 12.9959 7.83231C12.3499 6.66133 12.7295 5.30442 13.7954 4.7553C14.3403 4.47487 14.8387 4.45004 15.272 4.61048L15.0681 4.24089L16.2886 3.61249ZM16.1528 6.20645C15.8273 5.61662 15.2165 5.45685 14.6551 5.74569C14.094 6.0352 13.8908 6.61395 14.2161 7.20377C14.5417 7.79333 15.1521 7.95297 15.7136 7.66413C16.2745 7.37502 16.4777 6.79601 16.1528 6.20645Z" fill="#3A4042"/>
<path d="M23.4425 4.24197C23.7069 5.54482 22.9332 6.73502 21.7481 6.95913C21.1416 7.07391 20.6576 6.95672 20.2921 6.6811L20.375 7.0918L19.018 7.34861L17.7784 1.22836L19.1354 0.971558L19.573 3.13159C19.8042 2.74251 20.2069 2.45781 20.813 2.34302C21.9984 2.11891 23.1789 2.93978 23.4425 4.24197ZM22.0855 4.49878C21.9527 3.84315 21.4171 3.51773 20.7931 3.63572C20.169 3.75398 19.7995 4.25065 19.9324 4.90588C20.0653 5.56191 20.6008 5.88719 21.2253 5.76893C21.8493 5.65107 22.2181 5.15454 22.0855 4.49878Z" fill="#3A4042"/>
<path d="M24.9148 6.58366L24.3259 5.97715L24.4297 2.84302L25.0573 2.27441L25.9417 2.30151L26.5306 2.90775L26.5053 3.66469L26.1459 3.65388L26.1672 3.0128L25.766 2.59903L25.2128 2.58194L24.7851 2.96995L24.6892 5.87264L25.0903 6.28601L25.6431 6.3031L26.0713 5.91548L26.0922 5.27414L26.4516 5.28561L26.4267 6.04215L25.7991 6.61116L24.9148 6.58366Z" fill="#3A4042"/>
<path d="M27.6341 6.80536L27.1508 6.11703L27.7605 3.03722L28.4724 2.57019L29.4681 2.75425L29.9514 3.44218L29.3421 6.52239L28.6298 6.98942L27.6341 6.80536ZM27.8555 6.53814L28.5257 6.66201L29.0115 6.34354L29.5761 3.49104L29.2466 3.0216L28.5764 2.89801L28.0909 3.21648L27.5258 6.06871L27.8555 6.53814Z" fill="#3A4042"/>
<path d="M30.4434 7.4714L30.0826 6.717L31.2034 3.774L31.9849 3.42536L32.6339 3.65614L32.9782 4.37651L33.8346 2.12772L34.1725 2.24771L31.975 8.01651L31.6638 7.90586L31.8504 7.36435L31.0926 7.70258L30.4434 7.4714ZM30.7074 7.24315L31.0966 7.3813L31.9844 6.98488L32.8314 4.76078L32.4216 3.90334L32.0323 3.76479L31.4997 4.00251L30.4614 6.72807L30.7074 7.24315Z" fill="#3A4042"/>
<path d="M33.2042 8.61982L32.973 7.81843L34.5684 5.08766L35.3974 4.86462L36.2484 5.32845L36.4792 6.12957L35.6502 7.54948L34.0523 6.67802L33.3454 7.88837L33.5027 8.43469L34.0645 8.74128L34.6299 8.58925L34.9017 8.12369L35.2147 8.29427L34.8842 8.86087L34.0551 9.08391L33.2042 8.61982ZM34.2061 6.41454L35.4911 7.11502L36.1069 6.05949L35.9498 5.51345L35.3872 5.20685L34.8225 5.35888L34.2061 6.41454Z" fill="#3A4042"/>
<path d="M38.4134 22.0628C33.9712 22.0628 31.9935 27.0537 31.9327 27.2093C31.79 27.6347 30.8114 30.6537 30.8114 33.0676C30.8114 37.6296 26.8955 40.2694 22.145 40.2694C17.3551 40.2694 13.4746 37.5899 13.4746 32.9632C13.4746 32.9632 13.4746 30.407 13.7967 28.1373C13.0327 27.3022 12.9208 25.9644 12.9208 25.9644C12.9208 25.9644 12.599 26.0252 12.3045 26.2622C12.2681 26.2916 12.2124 26.2633 12.2179 26.2178C12.3049 25.5038 13.0532 23.9889 14.5351 23.7708C14.7944 22.7574 15.2853 21.6852 15.3972 21.4822C16.8996 18.7761 19.8532 16.9372 23.2526 16.9372C24.4997 16.9372 25.6859 17.1839 26.764 17.6318C29.7608 17.6318 31.2082 16.0947 31.2082 16.0947C31.881 16.0947 32.6921 17.796 32.3164 18.4297C32.3072 18.4454 32.3276 18.4634 32.3434 18.4538C33.5918 17.6852 34.2955 15.7891 34.2955 15.7891C35.7213 16.4779 36.4695 19.5731 35.7036 20.3132C38.1639 20.6793 38.8258 22.0628 38.4134 22.0628Z" fill="#FFFCEE"/>
<path d="M21.93 40.2656C17.2392 40.1873 13.474 37.5216 13.474 32.964C13.474 32.964 13.4346 32.3098 13.5452 30.7703C18.4501 30.0254 16.0393 36.8181 21.93 40.2656Z" fill="#EAE6DA"/>
<path d="M38.5274 21.9413C38.5274 22.0173 38.4882 22.0628 38.4135 22.0628C38.3427 22.0628 38.2741 22.0647 38.2034 22.0665C34.2619 22.1937 32.514 25.8847 32.2176 26.5868C32.2157 26.5905 32.2138 26.5944 32.2117 26.5981C32.0506 26.9189 31.9603 27.1409 31.9367 27.1978C32.0702 26.6286 32.1606 26.082 32.1606 25.543C32.1606 23.7687 31.6047 22.1195 30.6524 20.7494C29.6998 19.3811 28.3527 18.29 26.7659 17.6314C26.8425 17.6314 26.9191 17.6295 26.9957 17.6277C27.0428 17.6277 27.0899 17.6258 27.1372 17.6219C27.1862 17.6219 27.2354 17.6182 27.2844 17.6162C27.359 17.6105 27.4297 17.6048 27.5004 17.5991C27.5437 17.5954 27.5869 17.5915 27.63 17.5858C27.9206 17.5573 28.1936 17.5117 28.449 17.4567C28.4941 17.4453 28.5393 17.4359 28.5825 17.4244C28.6296 17.4149 28.6769 17.4036 28.724 17.3902C28.777 17.3769 28.83 17.3637 28.881 17.3484C28.9635 17.3237 29.0459 17.2991 29.1245 17.2744C29.1874 17.2535 29.2502 17.2326 29.3091 17.2099C29.37 17.1891 29.4308 17.1681 29.4878 17.1434C29.5468 17.1226 29.6018 17.0998 29.6567 17.0751C29.7648 17.0296 29.8688 16.9821 29.967 16.9347C30.0907 16.8739 30.2046 16.8132 30.3106 16.7525C30.4854 16.6538 30.6327 16.5571 30.7544 16.4698C30.9017 16.3635 31.0137 16.2724 31.0883 16.206C31.0902 16.2042 31.0902 16.2042 31.0922 16.2023C31.1667 16.1416 31.2748 16.1434 31.3495 16.2042C31.7206 16.5154 32.681 17.4376 32.3216 18.4169C32.3197 18.4206 32.3178 18.4245 32.3157 18.4283C32.3118 18.4377 32.3157 18.4453 32.3216 18.4491C32.3276 18.4548 32.3374 18.4586 32.3453 18.4528C32.3825 18.43 32.4179 18.4073 32.4552 18.3807C32.5377 18.3237 32.6201 18.2631 32.6968 18.1967C32.7262 18.172 32.7558 18.1454 32.7852 18.1189C32.8323 18.0771 32.8794 18.0316 32.9246 17.9861C32.9461 17.9652 32.9678 17.9443 32.9874 17.9216C32.9913 17.9178 32.9953 17.914 32.9991 17.9102C33.013 17.8969 33.0247 17.8837 33.0364 17.8703C33.0503 17.8551 33.0639 17.8419 33.0757 17.8286C33.0795 17.8248 33.0816 17.8209 33.0835 17.8191C33.1051 17.7963 33.1248 17.7736 33.1424 17.7507C33.1541 17.7374 33.166 17.726 33.1758 17.7128C33.2112 17.6711 33.2465 17.6274 33.28 17.5856C33.2996 17.5609 33.3192 17.5362 33.3369 17.5115C33.3428 17.5058 33.3467 17.5002 33.3486 17.4945C33.3486 17.4945 33.3525 17.4926 33.3525 17.4907C33.3721 17.466 33.3917 17.4413 33.4075 17.4166C33.429 17.3882 33.4507 17.3597 33.4684 17.3312C33.4782 17.3217 33.4841 17.3104 33.4899 17.3008C33.4978 17.2913 33.5037 17.2818 33.5095 17.2724C33.5253 17.2515 33.5389 17.2306 33.5528 17.2098C33.5822 17.1661 33.6117 17.1206 33.6392 17.077C33.6412 17.0751 33.6431 17.0732 33.6431 17.0712C33.6725 17.0276 33.6981 16.9839 33.7236 16.9403C33.7296 16.9327 33.7334 16.9251 33.7374 16.9175C33.7767 16.8549 33.812 16.7923 33.8455 16.7315C33.8593 16.7087 33.871 16.6879 33.8827 16.6671C33.9064 16.6253 33.9279 16.5816 33.9495 16.5419C33.9671 16.5095 33.9829 16.4774 34.0006 16.447C34.0006 16.4451 34.0006 16.4432 34.0025 16.4412C34.0044 16.4336 34.0084 16.426 34.0123 16.4204C34.0339 16.3805 34.0536 16.3407 34.0713 16.3028C34.0851 16.2744 34.0988 16.2458 34.1105 16.2192C34.1184 16.204 34.1243 16.1908 34.1301 16.1775C34.134 16.1699 34.138 16.1622 34.1419 16.1546C34.1557 16.1223 34.1694 16.0939 34.1811 16.0655C34.185 16.056 34.189 16.0484 34.1949 16.0389C34.2637 15.9327 34.4188 15.9175 34.5072 16.0161C34.7998 16.3406 35.3341 16.9782 35.715 17.6993C35.7248 17.7222 35.7308 17.7449 35.7406 17.7677C36.0783 18.7697 36.1196 19.838 35.7406 20.2726C35.7288 20.286 35.7169 20.2992 35.7033 20.3125C35.8565 20.3354 36.0037 20.3619 36.1432 20.3922C36.2022 20.4054 36.2591 20.4188 36.316 20.4321C36.3454 20.4397 36.375 20.4473 36.4025 20.4549C36.4574 20.4683 36.5105 20.4834 36.5616 20.4986C37.2195 20.6903 37.6948 20.9579 38.0129 21.2178C38.0404 21.2406 38.0659 21.2633 38.0915 21.2861C38.0954 21.288 38.0994 21.2898 38.1013 21.2937C38.1269 21.3165 38.1503 21.3392 38.174 21.362C38.1976 21.3849 38.2211 21.4076 38.2427 21.4323C38.2643 21.4551 38.286 21.4778 38.3037 21.5006C38.3371 21.5385 38.3665 21.5765 38.3921 21.6126C38.4687 21.7246 38.5118 21.8232 38.5237 21.8991C38.5255 21.9148 38.5274 21.928 38.5274 21.9413Z" fill="#F25A70"/>
<path d="M14.9006 23.7451C13.1761 23.7451 12.3095 25.4479 12.2172 26.2184C12.2117 26.2646 12.2668 26.2924 12.3038 26.2627C12.5994 26.0259 12.9215 25.9636 12.9215 25.9636C12.9215 25.9636 13.1589 28.7942 15.2965 28.7942C17.9089 28.7942 17.6714 23.7451 14.9006 23.7451Z" fill="#828282"/>
<path d="M23.7264 36.6167C25.0154 36.8339 27.4487 37.018 28.1216 36.3677C28.557 35.947 27.1275 34.0701 25.7862 32.8127C25.45 32.4808 24.837 32.2367 24.2425 32.2367C22.9742 32.2367 21.9467 33.2296 21.9467 34.4552C21.9465 35.5492 22.6489 36.4346 23.7264 36.6167Z" fill="#F4F1E4"/>
<path d="M36.8816 19.8015C37.1795 18.6508 36.5707 17.1541 35.1 15.518C34.9136 15.3104 34.6438 15.1915 34.36 15.1915C33.9673 15.1915 33.6132 15.4168 33.4581 15.7656C33.3734 15.9558 33.1685 16.3876 32.8737 16.8232C32.5756 16.2792 32.1344 15.8586 31.8619 15.6309C31.6829 15.4813 31.4544 15.3989 31.2185 15.3989C30.974 15.3989 30.7399 15.4866 30.5591 15.646C30.2402 15.9269 29.0509 16.829 26.9181 16.8709C25.7556 16.4109 24.5232 16.1779 23.2523 16.1779C19.6734 16.1779 16.3981 18.0728 14.7047 21.1231C14.5965 21.3192 14.1884 22.1981 13.8983 23.1421C12.4119 23.6285 11.5579 25.1415 11.4374 26.1285C11.4094 26.3579 11.4842 26.5883 11.643 26.7606C11.8022 26.9337 12.031 27.0329 12.2706 27.0329C12.2935 27.0329 12.3163 27.032 12.3391 27.0302C12.4633 27.4429 12.6614 27.9232 12.9749 28.3543C12.6922 30.5577 12.6887 32.8616 12.6887 32.9632C12.6887 35.401 13.6657 37.4668 15.514 38.9373C17.2089 40.2858 19.5637 41.0284 22.1446 41.0284C27.7098 41.0284 31.5967 37.7548 31.5967 33.0676C31.5967 30.777 32.5372 27.871 32.6737 27.4619C32.8125 27.115 34.6093 22.8219 38.4133 22.8219C38.8881 22.8219 39.2736 22.4751 39.31 22.0152C39.3705 21.2518 38.4749 20.2953 36.8816 19.8015ZM28.0752 38.1583C26.569 39.3361 24.4627 39.9847 22.1444 39.9847C16.3595 39.9847 13.7701 36.4584 13.7701 32.9635C13.7701 32.9401 13.7736 30.7801 14.0215 28.7C14.3672 28.9322 14.7869 29.0787 15.2964 29.0787C15.9694 29.0787 16.5288 28.7913 16.9145 28.2478C17.2397 27.7892 17.4189 27.1654 17.4189 26.4915C17.4189 25.0302 16.5454 23.4792 14.9273 23.4619C15.1887 22.6012 15.5652 21.7838 15.6574 21.6165C17.1624 18.9057 20.0729 17.2217 23.2531 17.2217C24.4333 17.2217 25.5756 17.4476 26.6483 17.893C28.1747 18.5265 29.4744 19.5692 30.4065 20.9081C31.3604 22.2805 31.8645 23.8831 31.8645 25.543C31.8645 26.4296 31.6096 27.3353 31.3144 28.3839C30.941 29.7099 30.5179 31.2127 30.5179 33.0676C30.5179 35.1485 29.6733 36.9087 28.0752 38.1583ZM16.0864 26.4866C14.4992 25.1446 13.0578 25.6067 12.832 25.6916C12.7955 25.7001 12.7332 25.7164 12.6528 25.7453C12.9391 25.033 13.6524 24.0298 14.9006 24.0298C16.167 24.0298 16.8296 25.2683 16.8296 26.4918C16.8296 27.052 16.6871 27.5613 16.4284 27.9261C16.1538 28.3133 15.773 28.5097 15.2964 28.5097C14.5406 28.5097 13.9638 28.0944 13.582 27.2753C13.3836 26.8499 13.2889 26.4185 13.2462 26.1653C13.6559 26.0749 14.6197 26.003 15.6985 26.9152C15.7545 26.9624 15.8235 26.9856 15.8924 26.9856C15.9745 26.9856 16.056 26.9528 16.1143 26.8885C16.2212 26.7699 16.2089 26.59 16.0864 26.4866ZM31.0883 16.2071C31.1253 16.1744 31.1718 16.1583 31.2184 16.1583C31.2644 16.1583 31.3105 16.174 31.3479 16.2052C31.6759 16.4793 32.4601 17.2283 32.3952 18.0727C32.0673 18.3223 31.6966 18.4878 31.2881 18.4878C31.1254 18.4878 30.9935 18.6153 30.9935 18.7725C30.9935 18.9297 31.1254 19.0572 31.2881 19.0572C32.9878 19.0572 34.0691 17.0321 34.4358 16.2158C35.0545 16.7063 35.509 17.7517 35.6584 18.6406C35.7588 19.2387 35.7227 19.7537 35.57 20.0138C35.2335 19.969 34.8659 19.9413 34.4548 19.9413C34.2921 19.9413 34.1602 20.0688 34.1602 20.2261C34.1602 20.3833 34.2921 20.5108 34.4548 20.5108C36.7317 20.5108 37.6252 21.3242 37.9507 21.7933C34.9984 21.9977 33.2628 24.1426 32.4526 25.4986C32.4436 23.7413 31.906 22.0451 30.895 20.5907C30.0063 19.3142 28.8032 18.292 27.3956 17.6055C29.5034 17.4463 30.7213 16.5304 31.0883 16.2071Z" fill="#3A4042"/>
<path d="M20.4858 28.3971C21.2925 28.3971 21.9464 27.7652 21.9464 26.9858C21.9464 26.2063 21.2925 25.5744 20.4858 25.5744C19.6792 25.5744 19.0253 26.2063 19.0253 26.9858C19.0253 27.7652 19.6792 28.3971 20.4858 28.3971Z" fill="#3A4042"/>
<path d="M26.0682 37.1059C24.9689 37.1059 23.8814 36.9318 23.6757 36.8972H23.6756C22.4652 36.6928 21.6519 35.7113 21.6519 34.4554C21.6519 33.0752 22.8139 31.9522 24.2423 31.9522C24.901 31.9522 25.5896 32.212 25.9967 32.6139C26.9561 33.5131 28.489 35.2716 28.4959 36.14C28.4976 36.3607 28.4067 36.4953 28.3299 36.5693C27.8981 36.9864 26.979 37.1059 26.0682 37.1059ZM23.7769 36.3364C25.4345 36.6159 27.435 36.6287 27.9133 36.1666C28.0119 35.8946 27.0638 34.4073 25.581 33.0171C25.2831 32.7231 24.7347 32.5214 24.2423 32.5214C23.1388 32.5214 22.2411 33.389 22.2411 34.4553C22.2411 35.4251 22.8583 36.1809 23.7769 36.3364Z" fill="#3A4042"/>
<path d="M5.78622 17.59C6.20391 17.9637 6.35682 18.5596 6.20101 19.1741C5.92945 20.247 5.01077 20.7638 3.89138 20.4992C2.77172 20.2344 2.2036 19.3662 2.47558 18.2933C2.63111 17.6788 3.04922 17.227 3.60062 17.0728L3.18679 15.7094C2.16659 16.0278 1.35702 16.8636 1.07856 17.9627C0.615829 19.7886 1.69585 21.4479 3.54082 21.8837C5.38578 22.32 7.136 21.3307 7.59845 19.5047C7.87898 18.3967 7.56032 17.2938 6.8049 16.5648L5.78622 17.59Z" fill="#3A4042"/>
</svg>
