<svg width="21" height="17" viewBox="0 0 21 17" fill="none" xmlns="http://www.w3.org/2000/svg">
<path d="M18.753 4.26601C18.761 4.44901 18.766 4.63401 18.766 4.81901C18.766 10.446 14.484 16.932 6.65 16.932C4.245 16.932 2.006 16.229 0.123001 15.02C1.23808 15.1548 2.3688 15.0685 3.45049 14.766C4.53218 14.4635 5.54363 13.9507 6.427 13.257C5.5384 13.2404 4.67722 12.9465 3.96394 12.4163C3.25066 11.886 2.72098 11.1461 2.449 10.3C3.08718 10.4219 3.74472 10.3973 4.372 10.228C3.40819 10.0334 2.5414 9.51127 1.91875 8.75027C1.2961 7.98927 0.955941 7.03627 0.956001 6.053L0.957001 5.999C1.531 6.317 2.187 6.50901 2.885 6.53101C2.30193 6.14211 1.82394 5.61521 1.49352 4.99711C1.16311 4.37902 0.990486 3.68887 0.991001 2.988C0.991001 2.207 1.201 1.475 1.567 0.846005C2.6361 2.16155 3.96989 3.23757 5.48181 4.00421C6.99372 4.77085 8.64996 5.21097 10.343 5.296C10.2696 4.97792 10.233 4.65245 10.234 4.32601C10.2335 3.47187 10.4899 2.63732 10.9699 1.9308C11.4499 1.22428 12.1312 0.678437 12.9255 0.364195C13.7197 0.0499533 14.5901 -0.0181628 15.4235 0.168697C16.257 0.355556 17.015 0.788753 17.599 1.412C18.5532 1.2246 19.4681 0.874861 20.304 0.378005C19.9857 1.36486 19.3197 2.20248 18.43 2.735C19.274 2.63565 20.0982 2.40979 20.875 2.065C20.3054 2.91968 19.5866 3.66589 18.753 4.26601Z" fill="white"/>
</svg>
